<svg xmlns:xlink="http://www.w3.org/1999/xlink" viewBox="0 0 40 40" xmlns="http://www.w3.org/2000/svg" role="img" aria-labelledby="BTC" height="32" width="32"><g fill="none"><circle fill="#F7931A" cx="20" cy="20" r="20"></circle><circle stroke-opacity="0.02" stroke="#000000" cx="20" cy="20" r="19.5" fill="none"></circle><path d="M28.986 17.525c.393-2.62-1.604-4.029-4.331-4.969l.885-3.55-2.16-.537-.862 3.456c-.568-.142-1.15-.275-1.732-.407l.869-3.48-2.16-.538-.885 3.549c-.47-.108-.932-.213-1.38-.325l.003-.011-2.98-.744-.575 2.307s1.603.368 1.57.39c.875.219 1.032.798 1.006 1.258l-1.008 4.044c.06.015.138.037.225.07l-.228-.055-1.413 5.665c-.107.265-.379.663-.991.512.022.031-1.57-.391-1.57-.391l-1.073 2.472 2.813.701c.522.132 1.035.27 1.539.398l-.894 3.59 2.159.537.884-3.55a99.293 99.293 0 001.723.447l-.882 3.535 2.16.537.893-3.582c3.685.697 6.455.416 7.621-2.916.94-2.683-.046-4.232-1.985-5.24 1.413-.326 2.475-1.254 2.76-3.173zm-4.937 6.923c-.666 2.683-5.185 1.232-6.65.868l1.187-4.756c1.465.366 6.161 1.09 5.463 3.888zm.669-6.962c-.61 2.441-4.37 1.2-5.588.896l1.075-4.312c1.219.304 5.148.87 4.513 3.416z" fill="#FFFFFF"></path></g></svg>