<svg xmlns:xlink="http://www.w3.org/1999/xlink" viewBox="0 0 40 40" xmlns="http://www.w3.org/2000/svg" role="img" aria-labelledby="DAI" height="32" width="32"><g fill="none"><circle fill="#2744F7" cx="20" cy="20" r="20"></circle><path d="M20 0c11.046 0 20 8.955 20 20 0 11.046-8.954 20-20 20C8.955 40 0 31.046 0 20 0 8.955 8.955 0 20 0" fill="#F5AC37"></path><path d="M20.71 21.03h6.08c.13 0 .191 0 .2-.17.05-.619.05-1.241 0-1.86 0-.12-.06-.17-.19-.17H14.7c-.15 0-.19.05-.19.19v1.78c0 .23 0 .23.24.23h5.96zm5.601-4.28a.199.199 0 000-.14 3.966 3.966 0 00-.361-.63 5.11 5.11 0 00-.74-.93 2.45 2.45 0 00-.46-.45 7.178 7.178 0 00-3-1.52 7.475 7.475 0 00-1.7-.18h-5.37c-.15 0-.17.06-.17.19v3.55c0 .15 0 .19.19.19h11.54s.1-.02.12-.08h-.049zm0 6.36a2.298 2.298 0 00-.511 0H14.71c-.15 0-.2 0-.2.2v3.47c0 .16 0 .2.2.2h5.12c.245.019.49.001.73-.05a7.637 7.637 0 002.171-.48 3.96 3.96 0 00.729-.34h.07a6.497 6.497 0 002.79-2.809s.07-.151-.009-.191zM12.5 28.78v-5.53c0-.13 0-.15-.16-.15h-2.17c-.12 0-.17 0-.17-.16v-1.9h2.32c.13 0 .18 0 .18-.17v-1.88c0-.12 0-.15-.16-.15h-2.17c-.12 0-.17 0-.17-.16v-1.76c0-.11 0-.14.16-.14h2.15c.15 0 .19 0 .19-.19V11.2c0-.16 0-.2.2-.2h7.5c.544.021 1.085.081 1.62.18a9.773 9.773 0 013.13 1.16 8.87 8.87 0 011.76 1.36c.396.411.753.856 1.07 1.33.315.48.576.993.781 1.53a.26.26 0 00.299.21h1.79c.23 0 .23 0 .24.22v1.64c0 .16-.06.2-.22.2h-1.38c-.14 0-.18 0-.17.18.055.609.055 1.221 0 1.83 0 .17 0 .19.191.19h1.579c.07.09 0 .18 0 .271.01.116.01.233 0 .349v1.21c0 .17-.05.22-.2.22H28.8a.25.25 0 00-.29.19 7.999 7.999 0 01-2.1 3.06c-.34.306-.697.594-1.07.86-.4.23-.79.47-1.2.66a10.79 10.79 0 01-2.36.75c-.772.138-1.555.201-2.34.19H12.5v-.01z" fill="#FEFEFD"></path><circle stroke-opacity="0.02" stroke="#000000" cx="20" cy="20" r="19.5" fill="none"></circle></g></svg>