<svg xmlns:xlink="http://www.w3.org/1999/xlink" xmlns="http://www.w3.org/2000/svg" data-test="marketsActive" viewBox="0 0 32 32" fill="#49CC68" height="32" width="32" class="sc-gsTCUz"><defs><symbol id="iconMarketsActive" viewBox="0 0 32 32"><path d="m16 3c7.17925 0 13 5.82075 13 13s-5.82075 13-13 13c-5.0282577 0-9.39011294-2.8553269-11.55247024-7.0328852l5.55247024-5.5521148 4.2928932 4.2921068.0942074.0831886c.3596002.2796061.8661986.2796061 1.2257988 0l.0942074-.0831886 6.2927864-6.2931068.0001068 3.586h2v-6l-.0067277-.1166211c-.0533217-.4590819-.4175693-.8233295-.8766512-.8766512l-.1166211-.0067277h-6v2h3.5848932l-5.5848932 5.585-4.2928932-4.2921068-.0942074-.0831886c-.3596002-.2796061-.86619857-.2796061-1.22579884 0l-.09420734.0831886-5.67573311 5.6762235c-.4007792-1.2512162-.61716011-2.584916-.61716011-3.9691167 0-7.17925 5.82075-13 13-13z"></path></symbol></defs><use xlink:href="#iconMarketsActive" fill="#49CC68"></use></svg>